<svg width="20" height="21" viewBox="0 0 20 21" fill="none" xmlns="http://www.w3.org/2000/svg">
<path d="M3.94019 9.17969C5.56519 12.3281 7.9519 14.7148 11.1003 16.3398L13.4871 13.9531C13.8256 13.6146 14.198 13.5299 14.6042 13.6992C15.823 14.1055 17.1095 14.3086 18.4636 14.3086C18.7683 14.3086 19.0222 14.4102 19.2253 14.6133C19.4285 14.8164 19.53 15.0703 19.53 15.375V19.1836C19.53 19.4883 19.4285 19.7422 19.2253 19.9453C19.0222 20.1484 18.7683 20.25 18.4636 20.25C13.3855 20.25 9.03524 18.4557 5.41284 14.8672C1.8243 11.2448 0.0300293 6.89453 0.0300293 1.81641C0.0300293 1.51172 0.131592 1.25781 0.334717 1.05469C0.537842 0.851562 0.791748 0.75 1.09644 0.75H4.90503C5.20972 0.75 5.46362 0.851562 5.66675 1.05469C5.86987 1.25781 5.97144 1.51172 5.97144 1.81641C5.97144 3.17057 6.17456 4.45703 6.58081 5.67578C6.71623 6.11589 6.63159 6.48828 6.3269 6.79297L3.94019 9.17969Z" fill="#1F1F1F"/>
</svg>
