<svg width="30" height="31" viewBox="0 0 30 31" fill="none" xmlns="http://www.w3.org/2000/svg">
<path d="M21.7637 25.1387C22.3561 24.5462 23.0397 24.25 23.8145 24.25C24.5892 24.25 25.25 24.5462 25.7969 25.1387C26.3893 25.7311 26.6855 26.4147 26.6855 27.1895C26.6855 27.9642 26.3893 28.6478 25.7969 29.2402C25.25 29.7871 24.5892 30.0605 23.8145 30.0605C23.0397 30.0605 22.3561 29.7871 21.7637 29.2402C21.1712 28.6478 20.875 27.9642 20.875 27.1895C20.875 26.4147 21.1712 25.7311 21.7637 25.1387ZM0.435547 0.939453H5.2207L6.58789 3.81055H28.1895C28.5996 3.81055 28.9414 3.97005 29.2148 4.28906C29.4883 4.5625 29.625 4.9043 29.625 5.31445C29.625 5.36003 29.5566 5.58789 29.4199 5.99805L24.2246 15.4316C23.6777 16.4342 22.8346 16.9355 21.6953 16.9355H10.8262L9.52734 19.3281L9.45898 19.5332C9.45898 19.7611 9.57292 19.875 9.80078 19.875H26.6855V22.8145H9.18555C8.41081 22.8145 7.72721 22.5182 7.13477 21.9258C6.58789 21.3333 6.31445 20.6497 6.31445 19.875C6.31445 19.4193 6.42839 18.9635 6.65625 18.5078L8.63867 14.8848L3.375 3.81055H0.435547V0.939453ZM7.13477 25.1387C7.72721 24.5462 8.41081 24.25 9.18555 24.25C9.96029 24.25 10.6439 24.5462 11.2363 25.1387C11.8288 25.7311 12.125 26.4147 12.125 27.1895C12.125 27.9642 11.8288 28.6478 11.2363 29.2402C10.6439 29.7871 9.96029 30.0605 9.18555 30.0605C8.41081 30.0605 7.72721 29.7871 7.13477 29.2402C6.58789 28.6478 6.31445 27.9642 6.31445 27.1895C6.31445 26.4147 6.58789 25.7311 7.13477 25.1387Z" fill="#1F1F1F"/>
</svg>
